<svg width="118" height="28" viewBox="0 0 118 28" fill="none" xmlns="http://www.w3.org/2000/svg">
<path d="M42.09 11.9549C42.5833 12.2335 42.9811 12.6537 43.2322 13.161C43.5207 13.7576 43.6618 14.4147 43.6432 15.0769V19.922H41.5558V15.36C41.5919 14.8122 41.4153 14.2716 41.0628 13.8503C40.8896 13.6714 40.6803 13.5317 40.4485 13.4405C40.2167 13.3492 39.9681 13.3084 39.7192 13.321C39.4667 13.3075 39.2142 13.3478 38.9782 13.439C38.7425 13.5302 38.5287 13.6704 38.3512 13.8503C37.9942 14.2695 37.8144 14.8109 37.8498 15.36V19.922H35.7462V8.89027H37.8333V12.6933C38.1149 12.3263 38.4854 12.0369 38.91 11.8523C39.3787 11.6427 39.8876 11.5377 40.4014 11.5446C40.9908 11.5296 41.5736 11.6712 42.09 11.9549Z" fill="black"/>
<path d="M45.6072 13.5385C45.9122 12.9263 46.3815 12.4107 46.9631 12.0492C47.5414 11.6999 48.2059 11.5194 48.8818 11.5282C49.4519 11.5118 50.017 11.6387 50.5253 11.8974C50.9607 12.1239 51.3399 12.445 51.6348 12.8369V11.6636H53.7426V19.922H51.6348V18.7159C51.3492 19.1218 50.9682 19.4515 50.5253 19.6759C50.0182 19.9387 49.4531 20.0699 48.8818 20.0574C48.2077 20.0653 47.5456 19.8787 46.9754 19.52C46.3887 19.152 45.9152 18.6296 45.6072 18.0102C45.2616 17.3134 45.0898 16.5436 45.1058 15.7661C45.0889 14.9939 45.261 14.2292 45.6072 13.5385ZM51.3183 14.4861C51.1262 14.1416 50.8415 13.8574 50.4965 13.6656C50.1665 13.4786 49.7933 13.3803 49.4138 13.3803C49.0343 13.3803 48.6614 13.4786 48.3314 13.6656C47.9969 13.8631 47.7216 14.1464 47.5342 14.4861C47.3222 14.8833 47.2177 15.3287 47.2301 15.7785C47.2186 16.2321 47.3234 16.6811 47.5342 17.0831C47.7264 17.4371 48.0101 17.7332 48.356 17.9405C48.6782 18.1348 49.0478 18.237 49.4243 18.2359C49.8128 18.237 50.1945 18.1331 50.5286 17.9352C50.8628 17.7373 51.137 17.4527 51.3225 17.1118C51.5174 16.7044 51.6183 16.2586 51.6183 15.8072C51.6183 15.3557 51.5174 14.91 51.3225 14.5026L51.3183 14.4861Z" fill="black"/>
<path d="M57.8432 8.89027V19.922H55.7558V8.89027H57.8432Z" fill="black"/>
<path d="M61.43 19.5281C60.8001 19.1863 60.2788 18.6745 59.926 18.0512C59.5549 17.3652 59.3681 16.5949 59.3838 15.8153C59.3669 15.0336 59.5597 14.2616 59.9425 13.5794C60.3025 12.9469 60.8319 12.427 61.4711 12.0779C62.1404 11.7329 62.8829 11.5528 63.6363 11.5528C64.3896 11.5528 65.1321 11.7329 65.8017 12.0779C66.443 12.4257 66.9739 12.9459 67.3342 13.5794C67.717 14.2616 67.9098 15.0336 67.893 15.8153C67.908 16.5989 67.7092 17.3718 67.3177 18.0512C66.9484 18.6838 66.4106 19.202 65.7648 19.5487C65.0925 19.9062 64.3404 20.0882 63.5789 20.0779C62.8271 20.0831 62.0866 19.8937 61.43 19.5281ZM64.6472 17.9651C64.9874 17.7751 65.2645 17.4899 65.4441 17.1446C65.6534 16.7261 65.7552 16.2623 65.7402 15.7948C65.7612 15.4667 65.7173 15.1376 65.6107 14.8264C65.5045 14.5152 65.3375 14.2281 65.1195 13.9815C64.9241 13.7777 64.6884 13.6164 64.4274 13.5077C64.1668 13.399 63.8861 13.3452 63.6035 13.3497C63.3231 13.3432 63.0442 13.3961 62.7856 13.505C62.5271 13.6139 62.2947 13.7763 62.1038 13.9815C61.6726 14.4837 61.4558 15.1348 61.4997 15.7948C61.4552 16.4509 61.6657 17.0989 62.0872 17.604C62.2749 17.8105 62.5049 17.9742 62.7616 18.0839C63.0183 18.1936 63.2955 18.2468 63.5747 18.24C63.9497 18.2401 64.3184 18.1455 64.6472 17.9651Z" fill="black"/>
<path d="M80.8973 11.6636L78.4772 19.922H76.2214L74.7178 14.1538L73.2096 19.922H70.9376L68.5052 11.6636H70.6253L72.0881 17.9569L73.6699 11.6636H75.8803L77.4336 17.9405L78.888 11.6636H80.8973Z" fill="black"/>
<path d="M89.6611 16.4103H83.6173C83.6302 16.9422 83.8497 17.4482 84.2295 17.8216C84.6 18.1599 85.0874 18.3422 85.5894 18.3303C85.9323 18.3476 86.2725 18.2614 86.5658 18.0828C86.8589 17.9042 87.0913 17.6417 87.233 17.3293H89.4885C89.2612 18.1079 88.7886 18.7926 88.1409 19.2821C87.4185 19.8086 86.5406 20.0787 85.647 20.0493C84.8982 20.0613 84.159 19.879 83.502 19.52C82.8817 19.1791 82.3703 18.67 82.0272 18.0513C81.6635 17.3629 81.4813 16.5935 81.4972 15.8154C81.4756 15.0246 81.6551 14.2413 82.0188 13.5385C82.3496 12.9097 82.8583 12.3918 83.4816 12.0493C84.144 11.7122 84.8769 11.5364 85.6203 11.5364C86.3637 11.5364 87.0964 11.7122 87.7587 12.0493C88.3721 12.3782 88.8763 12.8786 89.2092 13.4893C89.5599 14.1464 89.7368 14.8822 89.7227 15.6267C89.7239 15.8892 89.7035 16.1513 89.6611 16.4103ZM87.5575 15.0113C87.5626 14.7668 87.5128 14.5242 87.4119 14.3013C87.3107 14.0784 87.1612 13.8809 86.9742 13.7231C86.5874 13.3947 86.0926 13.2208 85.5852 13.2349C85.106 13.2225 84.6394 13.391 84.2788 13.7067C83.9098 14.0476 83.6789 14.5118 83.6296 15.0113H87.5575Z" fill="black"/>
<path d="M91.2144 13.5385C91.5206 12.9257 91.9914 12.4101 92.5742 12.0492C93.1552 11.6994 93.823 11.5203 94.5012 11.5323C95.0633 11.5193 95.6197 11.6462 96.1202 11.9015C96.5568 12.1281 96.9369 12.4491 97.2336 12.841V11.6636H99.3413V19.922H97.2336V18.7159C96.9438 19.1299 96.5556 19.4655 96.1037 19.6923C95.5969 19.9559 95.0315 20.0872 94.4601 20.0738C93.7875 20.0816 93.1267 19.895 92.558 19.5364C91.9794 19.1591 91.5149 18.6315 91.2144 18.0102C90.8721 17.3124 90.7015 16.543 90.7171 15.7661C90.7009 14.9944 90.8715 14.2302 91.2144 13.5385ZM96.9297 14.4862C96.7375 14.1416 96.4529 13.8574 96.1079 13.6656C95.7767 13.4753 95.4011 13.3762 95.0189 13.3785C94.6412 13.3754 94.2697 13.4731 93.9425 13.6615C93.6074 13.8579 93.3317 14.1415 93.1453 14.4821C92.9321 14.8788 92.8261 15.3242 92.8372 15.7743C92.827 16.2283 92.933 16.6774 93.1453 17.079C93.3378 17.433 93.6215 17.7291 93.9671 17.9364C94.2893 18.1307 94.6589 18.2329 95.0354 18.2318C95.4239 18.2329 95.8055 18.129 96.1397 17.9311C96.4739 17.7332 96.7483 17.4487 96.9336 17.1077C97.1285 16.7003 97.2297 16.2545 97.2297 15.8031C97.2297 15.3516 97.1285 14.9059 96.9336 14.4985L96.9297 14.4862Z" fill="black"/>
<path d="M104.818 18.002L106.91 11.6636H109.133L106.072 19.922H103.54L100.496 11.6636H102.719L104.818 18.002Z" fill="black"/>
<path d="M117.942 16.4102H111.893C111.913 16.9416 112.138 17.4446 112.522 17.8133C112.893 18.1516 113.38 18.3339 113.882 18.322C114.225 18.3393 114.565 18.2531 114.858 18.0745C115.152 17.896 115.384 17.6334 115.526 17.321H117.781C117.552 18.1053 117.073 18.7938 116.417 19.282C115.697 19.8085 114.82 20.0786 113.927 20.0492C113.179 20.0613 112.44 19.8789 111.783 19.52C111.156 19.1727 110.643 18.6529 110.304 18.0225C109.94 17.3341 109.758 16.5647 109.773 15.7866C109.759 15.0057 109.938 14.2333 110.295 13.5384C110.629 12.9124 111.137 12.3964 111.758 12.0533C112.42 11.7162 113.153 11.5404 113.897 11.5404C114.64 11.5404 115.373 11.7162 116.035 12.0533C116.649 12.3811 117.152 12.8819 117.482 13.4933C117.836 14.1494 118.014 14.8856 117.999 15.6307C118.002 15.8917 117.982 16.1524 117.942 16.4102ZM115.838 15.0113C115.843 14.7667 115.793 14.5241 115.692 14.3012C115.591 14.0783 115.442 13.8808 115.255 13.723C114.868 13.3946 114.373 13.2207 113.866 13.2348C113.392 13.2298 112.934 13.4009 112.58 13.7149C112.211 14.0558 111.98 14.5199 111.931 15.0194L115.838 15.0113Z" fill="black"/>
<path d="M2.57618 14.4493C3.18018 29.0543 24.0198 29.0502 24.6237 14.4493C24.6237 13.0038 24.3386 11.5724 23.7846 10.237C23.2306 8.90154 22.4186 7.68812 21.3949 6.66601C20.3713 5.64389 19.156 4.83311 17.8186 4.27994C16.4811 3.72681 15.0476 3.44209 13.6 3.44209C12.1523 3.44209 10.7188 3.72681 9.38134 4.27994C8.04388 4.83311 6.82863 5.64389 5.80497 6.66601C4.78131 7.68812 3.96931 8.90154 3.41531 10.237C2.86132 11.5724 2.57618 13.0038 2.57618 14.4493ZM23.3952 14.4493C23.3952 17.0432 22.3632 19.5309 20.5262 21.3651C18.6893 23.1993 16.1978 24.2298 13.6 24.2298C11.0021 24.2298 8.51063 23.1993 6.67367 21.3651C4.83671 19.5309 3.80471 17.0432 3.80471 14.4493C4.34294 1.47286 22.857 1.47696 23.3952 14.4493Z" fill="black"/>
<path d="M7.96687 0.84107L0 8.79592V20.0451L7.96687 28H19.2331L27.1999 20.0451V8.79592L19.2331 0.84107H7.96687ZM26.0659 19.5775L18.7647 26.8677H8.43526L1.13402 19.5775V9.26361L8.43526 1.97338H18.7647L26.0659 9.26361V19.5775Z" fill="black"/>
<path d="M25.7988 3.77247e-06C25.3573 -0.000807535 24.9253 0.129258 24.5578 0.373727C24.1903 0.618198 23.9037 0.966073 23.7343 1.3733C23.5649 1.78052 23.5204 2.22877 23.6063 2.66129C23.6923 3.09381 23.9049 3.4911 24.2172 3.8029C24.5294 4.11469 24.9273 4.32695 25.3605 4.41279C25.7937 4.49859 26.2426 4.45413 26.6504 4.28501C27.0583 4.11589 27.4067 3.82973 27.6515 3.46277C27.8964 3.09578 28.0266 2.66453 28.0258 2.22359C28.0247 1.63419 27.7897 1.06924 27.3724 0.652474C26.9549 0.235706 26.3891 0.00108822 25.7988 3.77247e-06ZM25.7988 3.33949C25.5776 3.3403 25.3612 3.27555 25.1768 3.15341C24.9925 3.0313 24.8486 2.8573 24.7634 2.65348C24.6782 2.44965 24.6555 2.22515 24.6981 2.00842C24.7408 1.79168 24.8469 1.59247 25.003 1.43599C25.1592 1.27952 25.3583 1.17284 25.5752 1.12945C25.7921 1.08605 26.017 1.10791 26.2215 1.19225C26.4259 1.27659 26.6007 1.41961 26.7237 1.60321C26.8467 1.7868 26.9123 2.00271 26.9123 2.22359C26.9123 2.51883 26.7951 2.80204 26.5864 3.01121C26.3778 3.22035 26.0945 3.33841 25.7988 3.33949Z" fill="black"/>
</svg>
